<svg width="61" height="60" viewBox="0 0 61 60" fill="none" xmlns="http://www.w3.org/2000/svg">
<path fill-rule="evenodd" clip-rule="evenodd" d="M36.4491 7.5C45.8379 7.5 53.4491 15.1112 53.4491 24.5C53.4491 33.8888 45.8379 41.5 36.4491 41.5C27.0603 41.5 19.4491 33.8888 19.4491 24.5C19.4491 15.1112 27.0603 7.5 36.4491 7.5ZM59.4491 24.5C59.4491 11.7975 49.1516 1.5 36.4491 1.5C23.7465 1.5 13.4491 11.7975 13.4491 24.5C13.4491 29.4067 14.9856 33.9545 17.6036 37.6886L3.62067 51.6716C2.05857 53.2337 2.05857 55.7663 3.62067 57.3284C5.18277 58.8905 7.71543 58.8905 9.27752 57.3284L23.2605 43.3455C26.9946 45.9635 31.5424 47.5 36.4491 47.5C49.1516 47.5 59.4491 37.2025 59.4491 24.5Z" fill="#606569"/>
</svg>
