<svg width="494" height="494" viewBox="0 0 494 494" fill="none" xmlns="http://www.w3.org/2000/svg">
<path d="M0 246.518C0 240.947 1.85701 236.072 5.80315 232.126C9.74929 228.412 14.6239 226.555 19.7307 226.555H67.0844C72.4233 226.555 76.8337 228.412 80.5477 232.358C84.0296 236.304 85.8866 240.947 85.8866 246.518C85.8866 252.089 84.2617 256.731 80.7798 260.677C77.2979 264.623 72.6554 266.48 67.3165 266.48H19.9628C14.6239 266.48 9.98142 264.623 6.03528 260.677C2.08914 256.731 0 252.089 0 246.518ZM66.388 407.381C66.388 402.042 68.245 397.399 71.7269 393.221L105.849 360.027C109.331 356.313 113.974 354.688 119.545 354.688C125.116 354.688 129.758 356.545 133.472 360.027C137.186 363.509 139.043 367.919 139.043 373.258C139.043 378.829 137.186 383.936 133.472 388.114L100.51 421.076C90.9933 428.504 81.4762 428.504 71.959 421.076C68.245 417.362 66.388 412.72 66.388 407.381ZM66.388 86.1187C66.388 80.7798 68.245 76.1373 71.7269 71.959C76.3694 68.0129 81.2441 66.1559 86.5829 66.1559C91.6897 66.1559 96.3322 68.0129 100.278 71.7269L133.472 105.849C137.186 109.331 139.043 113.974 139.043 119.545C139.043 125.116 137.186 129.758 133.472 133.472C129.758 137.186 125.116 139.043 119.545 139.043C113.974 139.043 109.331 137.186 105.849 133.472L71.959 100.278C68.245 96.5643 66.388 91.6897 66.388 86.1187ZM125.58 246.518C125.58 224.93 130.919 204.735 141.829 186.165C152.739 167.595 167.363 152.739 186.165 141.829C204.967 130.919 224.93 125.58 246.518 125.58C262.766 125.58 278.319 128.83 293.407 135.329C308.263 141.829 321.262 150.418 331.94 161.327C342.85 172.237 351.439 185.004 357.706 199.86C363.973 214.716 367.223 230.501 367.223 246.75C367.223 268.57 361.884 288.765 350.974 307.335C340.064 325.905 325.44 340.529 306.87 351.439C288.3 362.348 268.105 367.687 246.286 367.687C224.466 367.687 204.271 362.348 185.701 351.439C167.131 340.529 152.507 325.905 141.597 307.335C131.151 288.532 125.58 268.337 125.58 246.518ZM165.041 246.518C165.041 269.266 172.934 288.532 188.95 304.549C204.735 320.566 224.001 328.69 246.75 328.69C269.498 328.69 288.765 320.566 304.781 304.549C320.798 288.532 328.922 269.266 328.922 246.518C328.922 224.234 320.798 205.199 304.781 189.183C288.765 173.398 269.498 165.506 246.75 165.506C224.234 165.506 204.967 173.398 189.183 189.183C172.934 205.199 165.041 224.234 165.041 246.518ZM226.787 427.112C226.787 421.541 228.644 416.898 232.59 413.184C236.536 409.47 241.179 407.613 246.518 407.613C252.089 407.613 256.963 409.47 260.677 413.184C264.391 416.898 266.248 421.541 266.248 427.112V473.305C266.248 478.876 264.391 483.75 260.445 487.696C256.499 491.643 251.857 493.5 246.518 493.5C241.179 493.5 236.304 491.643 232.59 487.696C228.644 483.75 226.787 478.876 226.787 473.305V427.112ZM226.787 67.3165V19.9628C226.787 14.6239 228.644 9.98142 232.59 6.03528C236.536 2.08914 241.179 0 246.75 0C252.321 0 256.731 1.85701 260.677 5.80315C264.623 9.74929 266.48 14.3918 266.48 19.7307V67.3165C266.48 72.6554 264.623 77.0658 260.677 80.7798C256.731 84.4938 252.089 86.1187 246.75 86.1187C241.411 86.1187 236.536 84.2617 232.822 80.7798C229.108 77.2979 226.787 72.6554 226.787 67.3165ZM354.92 373.258C354.92 367.919 356.777 363.509 360.259 360.259C363.741 356.545 368.152 354.92 373.258 354.92C378.829 354.92 383.472 356.777 387.186 360.259L421.076 393.453C424.79 397.399 426.647 402.274 426.647 407.613C426.647 412.952 424.79 417.594 421.076 421.308C411.791 428.504 402.506 428.504 393.221 421.308L360.259 388.347C356.777 384.168 354.92 379.294 354.92 373.258ZM354.92 119.777C354.92 113.974 356.777 109.331 360.259 106.081L393.221 71.959C397.167 68.245 401.81 66.388 406.917 66.388C412.488 66.388 417.13 68.245 420.844 72.1911C424.79 76.1373 426.647 80.7798 426.647 86.1187C426.647 91.9218 424.79 96.7965 421.076 100.51L387.186 133.704C383.008 137.418 378.365 139.276 373.258 139.276C367.919 139.276 363.741 137.418 360.259 133.704C356.777 129.99 354.92 125.348 354.92 119.777ZM407.381 246.518C407.381 240.947 409.238 236.304 412.952 232.126C416.666 228.412 421.076 226.555 426.183 226.555H473.072C478.411 226.555 483.054 228.644 487 232.59C490.946 236.536 493.035 241.179 493.035 246.518C493.035 251.857 490.946 256.499 487 260.445C483.054 264.391 478.411 266.248 473.072 266.248H426.183C420.844 266.248 416.202 264.391 412.72 260.445C409.238 256.499 407.381 252.089 407.381 246.518Z" fill="#D9E4E8"/>
</svg>
